<mxfile host="app.diagrams.net" modified="2023-09-15T17:21:08.768Z" agent="Mozilla/5.0 (Macintosh; Intel Mac OS X 10_15_7) AppleWebKit/605.1.15 (KHTML, like Gecko) Version/16.6 Safari/605.1.15" etag="lhH2cH8HwGPoKURSLASa" version="21.7.5" type="device">
  <diagram name="Страница — 1" id="eOjW78s8-aQjRUcJ3A1j">
    <mxGraphModel dx="930" dy="1477" grid="1" gridSize="10" guides="1" tooltips="1" connect="1" arrows="1" fold="1" page="1" pageScale="1" pageWidth="827" pageHeight="1169" math="0" shadow="0">
      <root>
        <mxCell id="0" />
        <mxCell id="1" parent="0" />
        <mxCell id="_x1OGSN1pECLFuadNWZl-1" value="ReportFilter" style="swimlane;whiteSpace=wrap;html=1;" vertex="1" parent="1">
          <mxGeometry x="130" y="320" width="200" height="200" as="geometry" />
        </mxCell>
        <mxCell id="_x1OGSN1pECLFuadNWZl-11" value="&lt;font style=&quot;font-size: 15px;&quot;&gt;id (PK)&lt;/font&gt;" style="text;html=1;strokeColor=none;fillColor=none;align=center;verticalAlign=middle;whiteSpace=wrap;rounded=0;" vertex="1" parent="_x1OGSN1pECLFuadNWZl-1">
          <mxGeometry x="70" y="20" width="60" height="30" as="geometry" />
        </mxCell>
        <mxCell id="_x1OGSN1pECLFuadNWZl-26" value="&lt;font style=&quot;font-size: 15px;&quot;&gt;report_id (FK)&lt;/font&gt;" style="text;html=1;strokeColor=none;fillColor=none;align=center;verticalAlign=middle;whiteSpace=wrap;rounded=0;" vertex="1" parent="_x1OGSN1pECLFuadNWZl-1">
          <mxGeometry x="45" y="50" width="110" height="30" as="geometry" />
        </mxCell>
        <mxCell id="_x1OGSN1pECLFuadNWZl-27" value="&lt;font style=&quot;font-size: 15px;&quot;&gt;field&lt;/font&gt;" style="text;html=1;strokeColor=none;fillColor=none;align=center;verticalAlign=middle;whiteSpace=wrap;rounded=0;" vertex="1" parent="_x1OGSN1pECLFuadNWZl-1">
          <mxGeometry x="45" y="85" width="110" height="30" as="geometry" />
        </mxCell>
        <mxCell id="_x1OGSN1pECLFuadNWZl-28" value="&lt;font style=&quot;font-size: 15px;&quot;&gt;operator&lt;/font&gt;" style="text;html=1;strokeColor=none;fillColor=none;align=center;verticalAlign=middle;whiteSpace=wrap;rounded=0;" vertex="1" parent="_x1OGSN1pECLFuadNWZl-1">
          <mxGeometry x="45" y="115" width="110" height="30" as="geometry" />
        </mxCell>
        <mxCell id="_x1OGSN1pECLFuadNWZl-29" value="&lt;font style=&quot;font-size: 15px;&quot;&gt;value&lt;/font&gt;" style="text;html=1;strokeColor=none;fillColor=none;align=center;verticalAlign=middle;whiteSpace=wrap;rounded=0;" vertex="1" parent="_x1OGSN1pECLFuadNWZl-1">
          <mxGeometry x="50" y="145" width="110" height="30" as="geometry" />
        </mxCell>
        <mxCell id="_x1OGSN1pECLFuadNWZl-67" value="" style="endArrow=none;html=1;rounded=0;exitX=0;exitY=0.25;exitDx=0;exitDy=0;entryX=1;entryY=0.25;entryDx=0;entryDy=0;" edge="1" parent="_x1OGSN1pECLFuadNWZl-1">
          <mxGeometry width="50" height="50" relative="1" as="geometry">
            <mxPoint y="80" as="sourcePoint" />
            <mxPoint x="200" y="80" as="targetPoint" />
          </mxGeometry>
        </mxCell>
        <mxCell id="_x1OGSN1pECLFuadNWZl-50" style="edgeStyle=orthogonalEdgeStyle;rounded=0;orthogonalLoop=1;jettySize=auto;html=1;exitX=0.5;exitY=0;exitDx=0;exitDy=0;entryX=0.5;entryY=0;entryDx=0;entryDy=0;" edge="1" parent="1" source="_x1OGSN1pECLFuadNWZl-3" target="_x1OGSN1pECLFuadNWZl-1">
          <mxGeometry relative="1" as="geometry" />
        </mxCell>
        <mxCell id="_x1OGSN1pECLFuadNWZl-51" style="edgeStyle=orthogonalEdgeStyle;rounded=0;orthogonalLoop=1;jettySize=auto;html=1;exitX=0.5;exitY=1;exitDx=0;exitDy=0;" edge="1" parent="1" source="_x1OGSN1pECLFuadNWZl-2" target="_x1OGSN1pECLFuadNWZl-4">
          <mxGeometry relative="1" as="geometry" />
        </mxCell>
        <mxCell id="_x1OGSN1pECLFuadNWZl-2" value="Report" style="swimlane;whiteSpace=wrap;html=1;" vertex="1" parent="1">
          <mxGeometry x="360" y="80" width="200" height="200" as="geometry" />
        </mxCell>
        <mxCell id="_x1OGSN1pECLFuadNWZl-6" value="&lt;font style=&quot;font-size: 15px;&quot;&gt;id (PK)&lt;/font&gt;" style="text;html=1;strokeColor=none;fillColor=none;align=center;verticalAlign=middle;whiteSpace=wrap;rounded=0;" vertex="1" parent="_x1OGSN1pECLFuadNWZl-2">
          <mxGeometry x="70" y="30" width="60" height="30" as="geometry" />
        </mxCell>
        <mxCell id="_x1OGSN1pECLFuadNWZl-7" value="&lt;font style=&quot;font-size: 15px;&quot;&gt;title&lt;/font&gt;" style="text;html=1;strokeColor=none;fillColor=none;align=center;verticalAlign=middle;whiteSpace=wrap;rounded=0;" vertex="1" parent="_x1OGSN1pECLFuadNWZl-2">
          <mxGeometry x="70" y="60" width="60" height="30" as="geometry" />
        </mxCell>
        <mxCell id="_x1OGSN1pECLFuadNWZl-8" value="&lt;font style=&quot;font-size: 15px;&quot;&gt;description&lt;/font&gt;" style="text;html=1;strokeColor=none;fillColor=none;align=center;verticalAlign=middle;whiteSpace=wrap;rounded=0;" vertex="1" parent="_x1OGSN1pECLFuadNWZl-2">
          <mxGeometry x="70" y="85" width="60" height="30" as="geometry" />
        </mxCell>
        <mxCell id="_x1OGSN1pECLFuadNWZl-9" value="&lt;font style=&quot;font-size: 15px;&quot;&gt;date_created&lt;/font&gt;" style="text;html=1;strokeColor=none;fillColor=none;align=center;verticalAlign=middle;whiteSpace=wrap;rounded=0;" vertex="1" parent="_x1OGSN1pECLFuadNWZl-2">
          <mxGeometry x="70" y="110" width="60" height="30" as="geometry" />
        </mxCell>
        <mxCell id="_x1OGSN1pECLFuadNWZl-10" value="&lt;font style=&quot;font-size: 15px;&quot;&gt;date_update&lt;br&gt;&lt;/font&gt;" style="text;html=1;strokeColor=none;fillColor=none;align=center;verticalAlign=middle;whiteSpace=wrap;rounded=0;" vertex="1" parent="_x1OGSN1pECLFuadNWZl-2">
          <mxGeometry x="70" y="140" width="60" height="30" as="geometry" />
        </mxCell>
        <mxCell id="_x1OGSN1pECLFuadNWZl-60" value="" style="endArrow=none;html=1;rounded=0;" edge="1" parent="_x1OGSN1pECLFuadNWZl-2">
          <mxGeometry width="50" height="50" relative="1" as="geometry">
            <mxPoint y="60" as="sourcePoint" />
            <mxPoint x="210" y="60" as="targetPoint" />
          </mxGeometry>
        </mxCell>
        <mxCell id="_x1OGSN1pECLFuadNWZl-3" value="ReportPArametr" style="swimlane;whiteSpace=wrap;html=1;" vertex="1" parent="1">
          <mxGeometry x="360" y="320" width="200" height="200" as="geometry" />
        </mxCell>
        <mxCell id="_x1OGSN1pECLFuadNWZl-12" value="&lt;font style=&quot;font-size: 15px;&quot;&gt;id (PK)&lt;/font&gt;" style="text;html=1;strokeColor=none;fillColor=none;align=center;verticalAlign=middle;whiteSpace=wrap;rounded=0;" vertex="1" parent="_x1OGSN1pECLFuadNWZl-3">
          <mxGeometry x="70" y="20" width="60" height="30" as="geometry" />
        </mxCell>
        <mxCell id="_x1OGSN1pECLFuadNWZl-15" value="&lt;font style=&quot;font-size: 15px;&quot;&gt;report_id (FK)&lt;/font&gt;" style="text;html=1;strokeColor=none;fillColor=none;align=center;verticalAlign=middle;whiteSpace=wrap;rounded=0;" vertex="1" parent="_x1OGSN1pECLFuadNWZl-3">
          <mxGeometry x="50" y="50" width="110" height="30" as="geometry" />
        </mxCell>
        <mxCell id="_x1OGSN1pECLFuadNWZl-22" value="&lt;font style=&quot;font-size: 15px;&quot;&gt;name&lt;/font&gt;" style="text;html=1;strokeColor=none;fillColor=none;align=center;verticalAlign=middle;whiteSpace=wrap;rounded=0;" vertex="1" parent="_x1OGSN1pECLFuadNWZl-3">
          <mxGeometry x="50" y="80" width="110" height="30" as="geometry" />
        </mxCell>
        <mxCell id="_x1OGSN1pECLFuadNWZl-23" value="&lt;font style=&quot;font-size: 15px;&quot;&gt;type&lt;/font&gt;" style="text;html=1;strokeColor=none;fillColor=none;align=center;verticalAlign=middle;whiteSpace=wrap;rounded=0;" vertex="1" parent="_x1OGSN1pECLFuadNWZl-3">
          <mxGeometry x="50" y="110" width="110" height="30" as="geometry" />
        </mxCell>
        <mxCell id="_x1OGSN1pECLFuadNWZl-24" value="&lt;font style=&quot;font-size: 15px;&quot;&gt;is_mandatory&lt;/font&gt;" style="text;html=1;strokeColor=none;fillColor=none;align=center;verticalAlign=middle;whiteSpace=wrap;rounded=0;" vertex="1" parent="_x1OGSN1pECLFuadNWZl-3">
          <mxGeometry x="50" y="140" width="110" height="30" as="geometry" />
        </mxCell>
        <mxCell id="_x1OGSN1pECLFuadNWZl-25" value="&lt;font style=&quot;font-size: 15px;&quot;&gt;default_value&lt;/font&gt;" style="text;html=1;strokeColor=none;fillColor=none;align=center;verticalAlign=middle;whiteSpace=wrap;rounded=0;" vertex="1" parent="_x1OGSN1pECLFuadNWZl-3">
          <mxGeometry x="50" y="170" width="110" height="30" as="geometry" />
        </mxCell>
        <mxCell id="_x1OGSN1pECLFuadNWZl-65" value="" style="endArrow=none;html=1;rounded=0;exitX=0;exitY=0.25;exitDx=0;exitDy=0;entryX=1;entryY=0.25;entryDx=0;entryDy=0;" edge="1" parent="_x1OGSN1pECLFuadNWZl-3">
          <mxGeometry width="50" height="50" relative="1" as="geometry">
            <mxPoint y="80" as="sourcePoint" />
            <mxPoint x="200" y="80" as="targetPoint" />
          </mxGeometry>
        </mxCell>
        <mxCell id="_x1OGSN1pECLFuadNWZl-53" style="edgeStyle=orthogonalEdgeStyle;rounded=0;orthogonalLoop=1;jettySize=auto;html=1;exitX=0.5;exitY=1;exitDx=0;exitDy=0;entryX=0.5;entryY=0;entryDx=0;entryDy=0;" edge="1" parent="1" source="_x1OGSN1pECLFuadNWZl-4" target="_x1OGSN1pECLFuadNWZl-5">
          <mxGeometry relative="1" as="geometry" />
        </mxCell>
        <mxCell id="_x1OGSN1pECLFuadNWZl-4" value="ReportPermission" style="swimlane;whiteSpace=wrap;html=1;" vertex="1" parent="1">
          <mxGeometry x="590" y="320" width="200" height="200" as="geometry" />
        </mxCell>
        <mxCell id="_x1OGSN1pECLFuadNWZl-14" value="&lt;font style=&quot;font-size: 15px;&quot;&gt;id (PK)&lt;/font&gt;" style="text;html=1;strokeColor=none;fillColor=none;align=center;verticalAlign=middle;whiteSpace=wrap;rounded=0;" vertex="1" parent="_x1OGSN1pECLFuadNWZl-4">
          <mxGeometry x="60" y="30" width="60" height="30" as="geometry" />
        </mxCell>
        <mxCell id="_x1OGSN1pECLFuadNWZl-30" value="&lt;font style=&quot;font-size: 15px;&quot;&gt;report_id (FK)&lt;/font&gt;" style="text;html=1;strokeColor=none;fillColor=none;align=center;verticalAlign=middle;whiteSpace=wrap;rounded=0;" vertex="1" parent="_x1OGSN1pECLFuadNWZl-4">
          <mxGeometry x="35" y="60" width="110" height="30" as="geometry" />
        </mxCell>
        <mxCell id="_x1OGSN1pECLFuadNWZl-31" value="&lt;font style=&quot;font-size: 15px;&quot;&gt;user_id (PK)&lt;/font&gt;" style="text;html=1;strokeColor=none;fillColor=none;align=center;verticalAlign=middle;whiteSpace=wrap;rounded=0;" vertex="1" parent="_x1OGSN1pECLFuadNWZl-4">
          <mxGeometry x="35" y="100" width="110" height="30" as="geometry" />
        </mxCell>
        <mxCell id="_x1OGSN1pECLFuadNWZl-33" value="&lt;font style=&quot;font-size: 15px;&quot;&gt;can_view&lt;/font&gt;" style="text;html=1;strokeColor=none;fillColor=none;align=center;verticalAlign=middle;whiteSpace=wrap;rounded=0;" vertex="1" parent="_x1OGSN1pECLFuadNWZl-4">
          <mxGeometry x="35" y="130" width="110" height="30" as="geometry" />
        </mxCell>
        <mxCell id="_x1OGSN1pECLFuadNWZl-34" value="&lt;font style=&quot;font-size: 15px;&quot;&gt;can_edit&lt;/font&gt;" style="text;html=1;strokeColor=none;fillColor=none;align=center;verticalAlign=middle;whiteSpace=wrap;rounded=0;" vertex="1" parent="_x1OGSN1pECLFuadNWZl-4">
          <mxGeometry x="35" y="160" width="110" height="30" as="geometry" />
        </mxCell>
        <mxCell id="_x1OGSN1pECLFuadNWZl-62" value="" style="endArrow=none;html=1;rounded=0;" edge="1" parent="_x1OGSN1pECLFuadNWZl-4">
          <mxGeometry width="50" height="50" relative="1" as="geometry">
            <mxPoint y="99" as="sourcePoint" />
            <mxPoint x="200" y="99" as="targetPoint" />
          </mxGeometry>
        </mxCell>
        <mxCell id="_x1OGSN1pECLFuadNWZl-64" value="" style="endArrow=none;html=1;rounded=0;exitX=0;exitY=0.25;exitDx=0;exitDy=0;entryX=1;entryY=0.25;entryDx=0;entryDy=0;" edge="1" parent="_x1OGSN1pECLFuadNWZl-4">
          <mxGeometry width="50" height="50" relative="1" as="geometry">
            <mxPoint y="129" as="sourcePoint" />
            <mxPoint x="200" y="129" as="targetPoint" />
          </mxGeometry>
        </mxCell>
        <mxCell id="_x1OGSN1pECLFuadNWZl-66" value="" style="endArrow=none;html=1;rounded=0;exitX=0;exitY=0.25;exitDx=0;exitDy=0;entryX=1;entryY=0.25;entryDx=0;entryDy=0;" edge="1" parent="_x1OGSN1pECLFuadNWZl-4">
          <mxGeometry width="50" height="50" relative="1" as="geometry">
            <mxPoint y="60" as="sourcePoint" />
            <mxPoint x="200" y="60" as="targetPoint" />
          </mxGeometry>
        </mxCell>
        <mxCell id="_x1OGSN1pECLFuadNWZl-5" value="User" style="swimlane;whiteSpace=wrap;html=1;" vertex="1" parent="1">
          <mxGeometry x="590" y="560" width="200" height="200" as="geometry" />
        </mxCell>
        <mxCell id="_x1OGSN1pECLFuadNWZl-13" value="&lt;font style=&quot;font-size: 15px;&quot;&gt;id (PK)&lt;/font&gt;" style="text;html=1;strokeColor=none;fillColor=none;align=center;verticalAlign=middle;whiteSpace=wrap;rounded=0;" vertex="1" parent="_x1OGSN1pECLFuadNWZl-5">
          <mxGeometry x="70" y="20" width="60" height="30" as="geometry" />
        </mxCell>
        <mxCell id="_x1OGSN1pECLFuadNWZl-35" value="&lt;font style=&quot;font-size: 15px;&quot;&gt;name&lt;/font&gt;" style="text;html=1;strokeColor=none;fillColor=none;align=center;verticalAlign=middle;whiteSpace=wrap;rounded=0;" vertex="1" parent="_x1OGSN1pECLFuadNWZl-5">
          <mxGeometry x="45" y="50" width="110" height="30" as="geometry" />
        </mxCell>
        <mxCell id="_x1OGSN1pECLFuadNWZl-36" value="&lt;font style=&quot;font-size: 15px;&quot;&gt;email&lt;/font&gt;" style="text;html=1;strokeColor=none;fillColor=none;align=center;verticalAlign=middle;whiteSpace=wrap;rounded=0;" vertex="1" parent="_x1OGSN1pECLFuadNWZl-5">
          <mxGeometry x="45" y="80" width="110" height="30" as="geometry" />
        </mxCell>
        <mxCell id="_x1OGSN1pECLFuadNWZl-37" value="&lt;font style=&quot;font-size: 15px;&quot;&gt;designation&lt;/font&gt;" style="text;html=1;strokeColor=none;fillColor=none;align=center;verticalAlign=middle;whiteSpace=wrap;rounded=0;" vertex="1" parent="_x1OGSN1pECLFuadNWZl-5">
          <mxGeometry x="45" y="110" width="110" height="30" as="geometry" />
        </mxCell>
        <mxCell id="_x1OGSN1pECLFuadNWZl-38" value="&lt;font style=&quot;font-size: 15px;&quot;&gt;department&lt;/font&gt;" style="text;html=1;strokeColor=none;fillColor=none;align=center;verticalAlign=middle;whiteSpace=wrap;rounded=0;" vertex="1" parent="_x1OGSN1pECLFuadNWZl-5">
          <mxGeometry x="45" y="140" width="110" height="30" as="geometry" />
        </mxCell>
        <mxCell id="_x1OGSN1pECLFuadNWZl-39" value="&lt;font style=&quot;font-size: 15px;&quot;&gt;date_joined&lt;/font&gt;" style="text;html=1;strokeColor=none;fillColor=none;align=center;verticalAlign=middle;whiteSpace=wrap;rounded=0;" vertex="1" parent="_x1OGSN1pECLFuadNWZl-5">
          <mxGeometry x="45" y="170" width="110" height="30" as="geometry" />
        </mxCell>
        <mxCell id="_x1OGSN1pECLFuadNWZl-63" value="" style="endArrow=none;html=1;rounded=0;exitX=0;exitY=0.25;exitDx=0;exitDy=0;entryX=1;entryY=0.25;entryDx=0;entryDy=0;" edge="1" parent="_x1OGSN1pECLFuadNWZl-5">
          <mxGeometry width="50" height="50" relative="1" as="geometry">
            <mxPoint y="49" as="sourcePoint" />
            <mxPoint x="200" y="49" as="targetPoint" />
          </mxGeometry>
        </mxCell>
        <mxCell id="_x1OGSN1pECLFuadNWZl-49" style="edgeStyle=orthogonalEdgeStyle;rounded=0;orthogonalLoop=1;jettySize=auto;html=1;exitX=1;exitY=0.5;exitDx=0;exitDy=0;entryX=0;entryY=0.5;entryDx=0;entryDy=0;" edge="1" parent="1" source="_x1OGSN1pECLFuadNWZl-41" target="_x1OGSN1pECLFuadNWZl-2">
          <mxGeometry relative="1" as="geometry" />
        </mxCell>
        <mxCell id="_x1OGSN1pECLFuadNWZl-41" value="Company" style="swimlane;whiteSpace=wrap;html=1;" vertex="1" parent="1">
          <mxGeometry x="40" y="80" width="200" height="200" as="geometry" />
        </mxCell>
        <mxCell id="_x1OGSN1pECLFuadNWZl-42" value="&lt;font style=&quot;font-size: 15px;&quot;&gt;id (PK)&lt;/font&gt;" style="text;html=1;strokeColor=none;fillColor=none;align=center;verticalAlign=middle;whiteSpace=wrap;rounded=0;" vertex="1" parent="_x1OGSN1pECLFuadNWZl-41">
          <mxGeometry x="70" y="20" width="60" height="30" as="geometry" />
        </mxCell>
        <mxCell id="_x1OGSN1pECLFuadNWZl-43" value="&lt;font style=&quot;font-size: 15px;&quot;&gt;name&lt;/font&gt;" style="text;html=1;strokeColor=none;fillColor=none;align=center;verticalAlign=middle;whiteSpace=wrap;rounded=0;" vertex="1" parent="_x1OGSN1pECLFuadNWZl-41">
          <mxGeometry x="45" y="50" width="110" height="30" as="geometry" />
        </mxCell>
        <mxCell id="_x1OGSN1pECLFuadNWZl-44" value="&lt;font style=&quot;font-size: 15px;&quot;&gt;adress&lt;/font&gt;" style="text;html=1;strokeColor=none;fillColor=none;align=center;verticalAlign=middle;whiteSpace=wrap;rounded=0;" vertex="1" parent="_x1OGSN1pECLFuadNWZl-41">
          <mxGeometry x="45" y="80" width="110" height="30" as="geometry" />
        </mxCell>
        <mxCell id="_x1OGSN1pECLFuadNWZl-45" value="&lt;font style=&quot;font-size: 15px;&quot;&gt;contact&lt;/font&gt;" style="text;html=1;strokeColor=none;fillColor=none;align=center;verticalAlign=middle;whiteSpace=wrap;rounded=0;" vertex="1" parent="_x1OGSN1pECLFuadNWZl-41">
          <mxGeometry x="45" y="110" width="110" height="30" as="geometry" />
        </mxCell>
        <mxCell id="_x1OGSN1pECLFuadNWZl-58" value="" style="endArrow=none;html=1;rounded=0;exitX=0;exitY=0.25;exitDx=0;exitDy=0;entryX=1;entryY=0.25;entryDx=0;entryDy=0;" edge="1" parent="1" source="_x1OGSN1pECLFuadNWZl-3" target="_x1OGSN1pECLFuadNWZl-3">
          <mxGeometry width="50" height="50" relative="1" as="geometry">
            <mxPoint x="420" y="480" as="sourcePoint" />
            <mxPoint x="470" y="430" as="targetPoint" />
          </mxGeometry>
        </mxCell>
        <mxCell id="_x1OGSN1pECLFuadNWZl-59" value="" style="endArrow=none;html=1;rounded=0;" edge="1" parent="1">
          <mxGeometry width="50" height="50" relative="1" as="geometry">
            <mxPoint x="40" y="140" as="sourcePoint" />
            <mxPoint x="240" y="140" as="targetPoint" />
          </mxGeometry>
        </mxCell>
        <mxCell id="_x1OGSN1pECLFuadNWZl-61" value="" style="endArrow=none;html=1;rounded=0;exitX=0;exitY=0.25;exitDx=0;exitDy=0;entryX=1;entryY=0.25;entryDx=0;entryDy=0;" edge="1" parent="1" source="_x1OGSN1pECLFuadNWZl-1" target="_x1OGSN1pECLFuadNWZl-1">
          <mxGeometry width="50" height="50" relative="1" as="geometry">
            <mxPoint x="160" y="420" as="sourcePoint" />
            <mxPoint x="210" y="370" as="targetPoint" />
          </mxGeometry>
        </mxCell>
      </root>
    </mxGraphModel>
  </diagram>
</mxfile>
